<?xml version="1.0" standalone="no"?>
<!DOCTYPE svg PUBLIC "-//W3C//DTD SVG 20010904//EN"
 "http://www.w3.org/TR/2001/REC-SVG-20010904/DTD/svg10.dtd">
<svg version="1.0" xmlns="http://www.w3.org/2000/svg"
 width="16.000000pt" height="16.000000pt" viewBox="0 0 16.000000 16.000000"
 preserveAspectRatio="xMidYMid meet">
<metadata>
Created by potrace 1.11, written by Peter Selinger 2001-2013
</metadata>
<g transform="translate(0.000000,16.000000) scale(0.006154,-0.006154)"
fill="#000000" stroke="none">
<path d="M1969 2431 c-92 -29 -104 -57 -104 -246 0 -133 2 -154 21 -185 28
-48 66 -65 149 -65 110 0 153 38 162 145 l6 60 -67 0 -66 0 0 -44 c0 -57 -8
-76 -31 -76 -31 0 -39 34 -39 172 0 137 5 158 41 158 20 0 29 -20 29 -66 l0
-34 66 0 66 0 -4 55 c-6 66 -30 103 -79 121 -38 14 -111 16 -150 5z"/>
<path d="M60 2185 l0 -245 113 0 c133 0 170 13 201 75 18 35 21 58 21 175 0
118 -3 140 -20 170 -33 56 -72 70 -202 70 l-113 0 0 -245z m188 133 c13 -13
18 -232 6 -262 -3 -9 -17 -16 -30 -16 l-24 0 0 145 c0 133 1 145 18 145 10 0
23 -5 30 -12z"/>
<path d="M460 2185 l0 -245 150 0 150 0 0 55 0 55 -80 0 -80 0 0 40 0 40 70 0
70 0 0 55 0 55 -70 0 -70 0 0 40 0 40 75 0 75 0 0 55 0 55 -145 0 -145 0 0
-245z"/>
<path d="M800 2185 l0 -245 70 0 70 0 0 95 0 95 70 0 70 0 0 55 0 55 -70 0
-70 0 0 40 0 40 75 0 75 0 0 55 0 55 -145 0 -145 0 0 -245z"/>
<path d="M1130 2185 l0 -245 150 0 150 0 0 55 0 55 -80 0 -80 0 0 40 0 40 70
0 70 0 0 55 0 55 -70 0 -70 0 0 40 0 40 75 0 75 0 0 55 0 55 -145 0 -145 0 0
-245z"/>
<path d="M1470 2185 l0 -245 60 0 60 0 0 148 c0 82 4 140 9 132 4 -8 23 -75
41 -147 l34 -133 73 0 73 0 0 245 0 245 -65 0 -65 0 -1 -147 c-1 -160 0 -160
-45 30 l-27 117 -73 0 -74 0 0 -245z"/>
<path d="M2240 2185 l0 -245 150 0 150 0 0 55 0 55 -80 0 -80 0 0 40 0 40 70
0 70 0 0 55 0 55 -70 0 -70 0 0 40 0 40 75 0 75 0 0 55 0 55 -145 0 -145 0 0
-245z"/>
<path d="M60 415 l0 -245 70 0 70 0 0 100 0 100 30 0 30 0 0 -100 0 -100 70 0
70 0 0 245 0 245 -70 0 -70 0 0 -90 0 -90 -30 0 -30 0 0 90 0 90 -70 0 -70 0
0 -245z"/>
<path d="M452 458 c4 -226 11 -254 72 -280 47 -20 166 -17 199 5 58 38 62 53
65 274 l3 203 -70 0 -71 0 -2 -202 c-3 -189 -4 -203 -22 -206 -10 -2 -22 2
-27 10 -5 7 -9 100 -9 206 l0 192 -71 0 -71 0 4 -202z"/>
<path d="M840 415 l0 -245 118 0 c136 0 176 14 205 70 34 67 2 180 -52 180 -9
0 -3 10 18 28 64 53 50 167 -24 198 -23 9 -73 14 -150 14 l-115 0 0 -245z
m188 105 c3 -24 -2 -38 -14 -47 -29 -21 -34 -16 -34 38 0 47 2 50 23 47 17 -2
23 -11 25 -38z m2 -159 c23 -43 6 -91 -32 -91 -15 0 -18 9 -18 55 0 48 2 55
20 55 10 0 24 -9 30 -19z"/>
</g>
</svg>
